<svg width="402" height="442" viewBox="0 0 402 442" fill="none" xmlns="http://www.w3.org/2000/svg">
<path d="M84.518 1.89858L157.968 43.7155L158.478 128.234L85.539 170.935L12.089 129.118L11.5785 44.5997L84.518 1.89858Z" fill="black"/>
<path d="M160.959 137.115L234.409 178.932L234.919 263.45L161.98 306.151L88.5298 264.335L88.0193 179.817L160.959 137.115Z" fill="#5A5656"/>
<path d="M86.1479 271.763L159.598 313.58L160.108 398.098L87.1688 440.799L13.7189 398.982L13.2084 314.464L86.1479 271.763Z" fill="#F36128" fill-opacity="0.75"/>
<path d="M238.726 0.967188L312.176 42.7841L312.687 127.302L239.747 170.003L166.297 128.186L165.787 43.6683L238.726 0.967188Z" fill="#FFC6AF" fill-opacity="0.75"/>
<path d="M315.167 136.184L388.617 178.001L389.128 262.519L316.188 305.22L242.738 263.403L242.228 178.885L315.167 136.184Z" fill="#F36128" fill-opacity="0.75"/>
<path d="M240.356 270.832L313.806 312.649L314.317 397.167L241.377 439.868L167.927 398.051L167.417 313.533L240.356 270.832Z" fill="#FFC6AF" fill-opacity="0.75"/>
</svg>
